<?xml version="1.0" encoding="utf-8"?>
<!-- Generator: Adobe Illustrator 21.0.2, SVG Export Plug-In . SVG Version: 6.00 Build 0)  -->
<svg version="1.1" id="Layer_1" xmlns="http://www.w3.org/2000/svg" xmlns:xlink="http://www.w3.org/1999/xlink" x="0px" y="0px"
	 viewBox="0 0 68.4 26.4" style="enable-background:new 0 0 68.4 26.4;" xml:space="preserve">
<style type="text/css">
	.st0{fill:#333333;}
	.st1{font-family:'Lato-Light';}
	.st2{font-size:5.3202px;}
	.st3{fill:#00EA90;}
	.st4{font-size:5.3204px;}
	.st5{fill:#0CA579;}
</style>
<text transform="matrix(1.1533 0 0 1 2.459 24.3483)" class="st0 st1 st2">P</text>
<text transform="matrix(1.1533 0 0 1 23.1455 24.3483)" class="st3 st1 st2">U</text>
<text transform="matrix(1.1533 -7.592489e-03 6.583201e-03 1 15.7932 24.3601)" class="st3 st1 st4">R</text>
<text transform="matrix(1.1533 0 0 1 8.7705 24.3483)" class="st0 st1 st2">Y</text>
<text transform="matrix(1.1533 0 0 1 29.6328 24.3483)" class="st3 st1 st2">S</text>
<g id="XMLID_1_">
	<path class="st5" d="M14.5,17.3c-2.3,1.5-5,1.2-5.6,1.1c-4-0.5-6.1-3.8-6.5-4.3l3.5-1.3c0.2,0.4,0.5,0.8,0.8,1.2
		c1.6,1.5,3.7,1.6,5.2,0.6c0.2-0.2,0.5-0.4,0.7-0.6c0.3-0.2,0.6-0.4,1-0.6c2.2-1.1,4.9-1.2,7.1-0.1c0.1,0.1,0.3,0.1,0.4,0.2
		c0.6,0.3,1.1,0.7,1.6,1.2c1.5,0.7,3.3,0.4,4.7-0.9c0.3-0.4,0.6-0.8,0.8-1.2l3.5,1.3c-0.3,0.5-2.5,3.7-6.5,4.3
		c-0.6,0.1-3.2,0.4-5.4-1C18.2,18,16.2,18,14.5,17.3z"/>
	<path class="st5" d="M16.9,8.1c-0.2-0.5-0.5-1-0.8-1.4c0,0-0.5-0.7-1.1-1.3c-1.1-1.1-5.3-2.8-9.2-0.8C3.9,5.5,2.8,7.1,2.2,8l3.6,1
		C6,8.6,6.3,8.2,6.6,7.9c1.4-1.4,4-1.6,5.6-0.3s3.2,2.7,4.8,4c1.6-1.3,3.2-2.7,4.8-4c1.5-1.3,4.2-1,5.6,0.3C27.7,8.2,28,8.6,28.2,9
		l3.6-1c-0.6-1-1.7-2.5-3.6-3.4c-3.9-1.9-8.1-0.3-9.3,0.8c-0.6,0.6-1.1,1.3-1.1,1.3C17.4,7.2,17.1,7.6,16.9,8.1z"/>
</g>
<g id="XMLID_36_">
	<path class="st3" d="M14.5,16.7c-2.3,1.5-5,1.2-5.6,1.1c-4-0.5-6.1-3.8-6.5-4.3l3.5-1.3c0.2,0.4,0.5,0.8,0.8,1.2
		c1.6,1.5,3.7,1.6,5.2,0.6c0.2-0.2,0.5-0.4,0.7-0.6c0.3-0.2,0.6-0.4,1-0.6c2.2-1.1,4.9-1.2,7.1-0.1c0.1,0.1,0.3,0.1,0.4,0.2
		c0.6,0.3,1.1,0.7,1.6,1.2c1.5,0.7,3.3,0.4,4.7-0.9c0.3-0.4,0.6-0.8,0.8-1.2l3.5,1.3c-0.3,0.5-2.5,3.7-6.5,4.3
		c-0.6,0.1-3.2,0.4-5.4-1C18.2,17.4,16.2,17.3,14.5,16.7z"/>
	<path class="st3" d="M17.1,7.4c-0.2-0.5-0.5-1-0.8-1.4c0,0-0.5-0.7-1.1-1.3C14.1,3.5,9.9,1.9,6,3.9C4.1,4.8,3,6.3,2.4,7.3l3.6,1
		c0.2-0.4,0.5-0.8,0.8-1.1c1.4-1.4,4-1.6,5.6-0.3s3.2,2.7,4.8,4c1.6-1.3,3.2-2.7,4.8-4c1.5-1.3,4.2-1,5.6,0.3
		c0.3,0.3,0.6,0.7,0.8,1.1l3.6-1c-0.6-1-1.7-2.5-3.6-3.4c-3.9-1.9-8.1-0.3-9.3,0.8C18.3,5.2,17.9,6,17.9,6
		C17.6,6.4,17.3,6.9,17.1,7.4z"/>
</g>
</svg>
