<?xml version="1.0" encoding="utf-8"?>
<!-- Generator: Adobe Illustrator 21.0.2, SVG Export Plug-In . SVG Version: 6.00 Build 0)  -->
<svg version="1.1" id="Layer_1" xmlns="http://www.w3.org/2000/svg" xmlns:xlink="http://www.w3.org/1999/xlink" x="0px" y="0px"
	 viewBox="0 0 366.3 190.3" style="enable-background:new 0 0 366.3 190.3;" xml:space="preserve">
<style type="text/css">
	.st0{fill:#0CA579;}
	.st1{fill:#00EA90;}
	.st2{fill:#494949;}
	.st3{fill:#333333;}
	.st4{font-family:'Lato-Light';}
	.st5{font-size:70px;}
</style>
<g id="XMLID_34_">
	<polygon class="st0" points="289.1,129.8 250.9,190.3 192.2,190.3 231.2,129.8 	"/>
</g>
<g id="XMLID_33_">
	<polygon class="st0" points="366.3,129.8 328.1,190.3 269.5,190.3 308.5,129.8 	"/>
</g>
<g id="XMLID_32_">
	<polygon class="st1" points="289.2,129.8 328.2,190.3 269.5,190.3 231.4,129.8 	"/>
</g>
<g id="XMLID_31_">
	<polygon class="st2" points="212.3,129.8 174.2,190.3 115.5,190.3 154.4,129.8 	"/>
</g>
<g id="XMLID_30_">
	<polygon class="st2" points="135,129.8 96.8,190.3 38.2,190.3 77.1,129.8 	"/>
</g>
<g id="XMLID_29_">
	<polygon class="st3" points="0,129.8 38.2,190.3 96.8,190.3 57.8,129.8 	"/>
</g>
<g id="XMLID_28_">
	<polygon class="st3" points="77.3,129.8 115.5,190.3 174.2,190.3 135.2,129.8 	"/>
</g>
<g id="XMLID_27_">
	<polygon class="st1" points="212.4,129.8 251.4,190.3 192.7,190.3 154.5,129.8 	"/>
</g>
<text transform="matrix(1 0 0 1 15.5016 121.3345)" class="st3 st4 st5">P</text>
<text transform="matrix(1 0 0 1 240.5016 121.3345)" class="st1 st4 st5">U</text>
<text transform="matrix(1 0 0 1 163.5016 121.3345)" class="st1 st4 st5">R</text>
<text transform="matrix(1 0 0 1 90.5016 121.3345)" class="st3 st4 st5">Y</text>
<text transform="matrix(1 0 0 1 318.5016 121.3345)" class="st1 st4 st5">S</text>
<g id="XMLID_8_">
	<polygon class="st0" points="231.2,60.5 192.2,0 250.9,0 289.1,60.5 	"/>
</g>
<g id="XMLID_7_">
	<polygon class="st0" points="308.5,60.5 269.5,0 328.1,0 366.3,60.5 	"/>
</g>
<g id="XMLID_6_">
	<polygon class="st1" points="231.4,60.5 269.5,-0.1 328.2,-0.1 289.2,60.5 	"/>
</g>
<g id="XMLID_5_">
	<polygon class="st2" points="154.4,60.5 115.5,0 174.2,0 212.3,60.5 	"/>
</g>
<g id="XMLID_4_">
	<polygon class="st2" points="77.1,60.5 38.2,-0.1 96.8,-0.1 135,60.5 	"/>
</g>
<g id="XMLID_3_">
	<polygon class="st3" points="57.8,60.5 96.8,0 38.2,0 0,60.5 	"/>
</g>
<g id="XMLID_2_">
	<polygon class="st3" points="135.2,60.5 174.2,0 115.5,0 77.3,60.5 	"/>
</g>
<g id="XMLID_1_">
	<polygon class="st1" points="154.5,60.5 192.7,-0.1 251.4,-0.1 212.4,60.5 	"/>
</g>
</svg>
