<?xml version="1.0" encoding="utf-8"?>
<!-- Generator: Adobe Illustrator 21.0.2, SVG Export Plug-In . SVG Version: 6.00 Build 0)  -->
<svg version="1.1" id="Layer_1" xmlns="http://www.w3.org/2000/svg" xmlns:xlink="http://www.w3.org/1999/xlink" x="0px" y="0px"
	 viewBox="0 0 812 168.8" style="enable-background:new 0 0 812 168.8;" xml:space="preserve">
<style type="text/css">
	.st0{fill:#333333;}
	.st1{font-family:'Lato-Light';}
	.st2{font-size:131.0862px;}
	.st3{fill:#00EA90;}
	.st4{fill:#494949;}
	.st5{fill:#0CA579;}
	.st6{fill:#3D3D3D;}
	.st7{fill:#4C4C4C;}
	.st8{fill:#00D880;}
	.st9{fill:#00CC74;}
	.st10{display:none;}
	.st11{display:inline;}
</style>
<g id="Layer_1_1_">
	<text transform="matrix(1 0 0 1 166.4282 127.9533)" class="st0 st1 st2">P</text>
	<g>
		<text transform="matrix(1 0 0 1 608.3751 127.9533)" class="st3 st1 st2">U</text>
	</g>
	<g>
		<text transform="matrix(1 0 0 1 451.0725 127.9533)" class="st3 st1 st2">R</text>
	</g>
	<text transform="matrix(1 0 0 1 301.2598 127.9533)" class="st0 st1 st2">Y</text>
	<g>
		<text transform="matrix(1 0 0 1 746.9531 127.9533)" class="st3 st1 st2">S</text>
	</g>
	<g id="XMLID_9_">
		<polygon class="st4" points="54.1,39.1 0,65.3 0,25.8 54.1,0 		"/>
	</g>
	<g id="XMLID_8_">
		<polygon class="st5" points="54.1,0 107.9,25.8 107.9,65.3 54.1,39.1 		"/>
	</g>
	<g id="XMLID_6_">
		<g id="XMLID_7_">
			<polygon class="st0" points="44.4,47.3 0,25.8 0,65.5 3.2,67 44.2,86.7 48,88.3 54.1,91.2 54.1,85.5 54.1,81.8 54.1,52 			"/>
			<polygon class="st6" points="0,64.6 0,104.2 0,104.3 3.2,105.8 44.2,125.3 54.1,130 54.1,120.6 54.1,90.9 44.4,86.2 40.6,84.5 
							"/>
			<polygon class="st7" points="0,103.3 0,143 54.1,168.8 54.1,129.7 40.6,123.1 			"/>
			<polygon class="st3" points="54.1,91.2 59.9,88.3 63.7,86.7 104.9,67 107.9,65.5 107.9,25.8 63.7,47.3 54.1,52 54.1,81.8 
				54.1,85.5 			"/>
			<polygon class="st8" points="54.1,130 63.9,125.3 104.9,105.8 107.9,104.3 107.9,104.2 107.9,64.6 67.4,84.5 63.7,86.2 
				54.1,90.9 54.1,120.6 			"/>
			<polygon class="st9" points="54.1,168.8 107.9,143 107.9,103.3 67.4,123.1 54.1,129.7 			"/>
			<path class="st5" d="M67.4,131"/>
			<path class="st5" d="M107.9,111.2"/>
		</g>
	</g>
</g>
<g id="Layer_2" class="st10">
	<g class="st11">
		<g id="XMLID_20_">
			<polygon class="st4" points="54.3,-152 0.2,-125.8 0.2,-165.3 54.3,-191.2 			"/>
		</g>
		<g id="XMLID_19_">
			<polygon class="st5" points="54.3,-191.2 108.1,-165.3 108.1,-125.8 54.3,-152 			"/>
		</g>
		<g id="XMLID_11_">
			<g id="XMLID_1_">
				<polygon class="st0" points="44.6,-143.8 0.2,-165.3 0.2,-125.6 3.4,-124.1 44.4,-104.5 48.1,-102.8 54.3,-100 54.3,-105.6 
					54.3,-109.3 54.3,-139.1 				"/>
				<polygon class="st0" points="0.2,-122.6 0.2,-83.1 0.2,-82.9 3.4,-81.4 44.4,-62 54.3,-57.3 54.3,-66.6 54.3,-96.4 44.6,-101.1 
					40.8,-102.8 				"/>
				<polygon class="st4" points="3.4,-124.1 44.4,-104.5 40.8,-102.8 0.2,-122.6 				"/>
				<polygon class="st0" points="0.2,-79.9 0.2,-40.2 54.3,-14.4 54.3,-53.5 40.8,-60.1 				"/>
				<polygon class="st4" points="44.4,-62 40.8,-60.1 0.2,-79.9 3.4,-81.4 				"/>
				<polygon class="st3" points="54.3,-100 60.1,-102.8 63.9,-104.5 105.1,-124.1 108.1,-125.6 108.1,-165.3 63.9,-143.8 
					54.3,-139.1 54.3,-109.3 54.3,-105.6 				"/>
				<polygon class="st3" points="54.3,-57.3 64.1,-62 105.1,-81.4 108.1,-82.9 108.1,-83.1 108.1,-122.6 67.6,-102.8 63.9,-101.1 
					54.3,-96.4 54.3,-66.6 				"/>
				<polygon class="st3" points="54.3,-14.4 108.1,-40.2 108.1,-79.9 67.6,-60.1 54.3,-53.5 				"/>
				<polygon class="st5" points="108.1,-79.9 67.6,-60.1 64.1,-62 105.1,-81.4 				"/>
				<polygon class="st5" points="108.1,-122.6 67.6,-102.8 63.9,-104.5 105.1,-124.1 				"/>
			</g>
		</g>
	</g>
</g>
</svg>
