<?xml version="1.0" standalone="no"?>
<!DOCTYPE svg PUBLIC "-//W3C//DTD SVG 20010904//EN"
 "http://www.w3.org/TR/2001/REC-SVG-20010904/DTD/svg10.dtd">
<svg version="1.0" xmlns="http://www.w3.org/2000/svg"
 width="404.000000pt" height="404.000000pt" viewBox="0 0 404.000000 404.000000"
 preserveAspectRatio="xMidYMid meet">
<metadata>
Created by potrace 1.11, written by Peter Selinger 2001-2013
</metadata>
<g transform="translate(0.000000,404.000000) scale(0.100000,-0.100000)"
fill="#000000" stroke="none">
<path d="M1900 3939 c-69 -33 -145 -70 -170 -81 -25 -11 -132 -63 -238 -114
-107 -52 -195 -94 -197 -94 -5 0 -396 -187 -435 -209 l-35 -19 -1 -441 -1
-442 28 -15 c36 -18 36 -23 1 -35 l-29 -10 0 -445 0 -445 30 -16 c30 -15 30
-16 11 -29 -10 -7 -24 -18 -30 -23 -8 -6 -11 -137 -10 -447 l1 -438 45 -22
c25 -13 97 -47 160 -77 63 -30 169 -80 235 -112 66 -32 165 -79 220 -105 55
-26 152 -72 215 -102 63 -31 159 -76 214 -102 54 -26 106 -48 115 -48 9 0 81
31 161 69 228 111 437 211 540 260 52 25 178 85 279 134 101 49 187 89 192 89
23 0 27 64 27 473 0 336 -3 437 -12 437 -7 0 -21 7 -32 14 -18 14 -18 15 12
26 l31 11 1 445 0 445 -30 19 -30 18 30 16 30 15 -2 443 -1 443 -75 36 c-250
122 -425 206 -495 239 -44 21 -156 75 -250 120 -183 89 -376 180 -379 180 0
-1 -57 -28 -126 -61z m274 -885 c75 -36 136 -68 135 -72 0 -11 -270 -137 -285
-134 -8 2 -76 32 -151 69 l-138 66 135 67 c74 37 142 68 151 68 9 1 78 -28
153 -64z m-221 -1053 c37 -17 72 -31 77 -31 5 0 50 20 101 45 102 49 112 51
159 31 l33 -13 -59 -28 c-33 -15 -81 -39 -109 -53 -27 -14 -67 -33 -87 -43
l-36 -19 -134 64 c-73 34 -140 65 -148 68 -11 3 -5 11 19 26 38 23 27 25 184
-47z m-26 -937 c51 -24 97 -44 102 -44 5 0 55 22 111 49 102 49 103 49 136 33
19 -8 34 -18 34 -22 0 -3 -63 -37 -140 -75 l-140 -69 -72 35 c-40 19 -106 51
-145 70 -40 19 -73 37 -73 40 0 11 65 36 80 31 8 -3 57 -25 107 -48z"/>
</g>
</svg>
