<?xml version="1.0" encoding="utf-8"?>
<!-- Generator: Adobe Illustrator 21.0.2, SVG Export Plug-In . SVG Version: 6.00 Build 0)  -->
<svg version="1.1" id="Layer_1" xmlns="http://www.w3.org/2000/svg" xmlns:xlink="http://www.w3.org/1999/xlink" x="0px" y="0px"
	 viewBox="0 0 534 108.5" style="enable-background:new 0 0 534 108.5;" xml:space="preserve">
<style type="text/css">
	.st0{fill:#333333;}
	.st1{font-family:'Lato-Light';}
	.st2{font-size:70px;}
	.st3{fill:#00EA90;}
	.st4{fill:#494949;}
	.st5{fill:#0CA579;}
</style>
<text transform="matrix(1 0 0 1 137.4669 87.5999)" class="st0 st1 st2">P</text>
<text transform="matrix(1 0 0 1 373.4669 87.6)" class="st3 st1 st2">U</text>
<text transform="matrix(1 0 0 1 289.4669 87.6)" class="st3 st1 st2">R</text>
<text transform="matrix(1 0 0 1 209.4669 87.6)" class="st0 st1 st2">Y</text>
<text transform="matrix(1 0 0 1 447.4669 87.6)" class="st3 st1 st2">S</text>
<g id="XMLID_20_">
	<polygon class="st4" points="67.1,31.6 38.2,45.6 38.2,24.5 67.1,10.7 	"/>
</g>
<g id="XMLID_19_">
	<polygon class="st5" points="67.1,10.7 95.8,24.5 95.8,45.6 67.1,31.6 	"/>
</g>
<g id="XMLID_11_">
	<g id="XMLID_1_">
		<polygon class="st0" points="61.9,36 38.2,24.5 38.2,45.7 39.9,46.5 61.8,57 63.8,57.9 67.1,59.4 67.1,56.4 67.1,54.4 67.1,38.5 
					"/>
		<polygon class="st0" points="38.2,47.3 38.2,68.4 38.2,68.5 39.9,69.3 61.8,79.7 67.1,82.2 67.1,77.2 67.1,61.3 61.9,58.8 
			59.9,57.9 		"/>
		<polygon class="st4" points="39.9,46.5 61.8,57 59.9,57.9 38.2,47.3 		"/>
		<polygon class="st0" points="38.2,70.1 38.2,91.3 67.1,105.1 67.1,84.2 59.9,80.7 		"/>
		<polygon class="st4" points="61.8,79.7 59.9,80.7 38.2,70.1 39.9,69.3 		"/>
		<polygon class="st3" points="67.1,59.4 70.2,57.9 72.2,57 94.2,46.5 95.8,45.7 95.8,24.5 72.2,36 67.1,38.5 67.1,54.4 67.1,56.4 
					"/>
		<polygon class="st3" points="67.1,82.2 72.3,79.7 94.2,69.3 95.8,68.5 95.8,68.4 95.8,47.3 74.2,57.9 72.2,58.8 67.1,61.3 
			67.1,77.2 		"/>
		<polygon class="st3" points="67.1,105.1 95.8,91.3 95.8,70.1 74.2,80.7 67.1,84.2 		"/>
		<polygon class="st5" points="95.8,70.1 74.2,80.7 72.3,79.7 94.2,69.3 		"/>
		<polygon class="st5" points="95.8,47.3 74.2,57.9 72.2,57 94.2,46.5 		"/>
	</g>
</g>
</svg>
