<?xml version="1.0" standalone="no"?>
<!DOCTYPE svg PUBLIC "-//W3C//DTD SVG 20010904//EN"
 "http://www.w3.org/TR/2001/REC-SVG-20010904/DTD/svg10.dtd">
<svg version="1.0" xmlns="http://www.w3.org/2000/svg"
 width="704.000000pt" height="704.000000pt" viewBox="0 0 704.000000 704.000000"
 preserveAspectRatio="xMidYMid meet">
<metadata>
Created by potrace 1.11, written by Peter Selinger 2001-2013
</metadata>
<g transform="translate(0.000000,704.000000) scale(0.100000,-0.100000)"
fill="#000000" stroke="none">
<path d="M3350 6953 c-162 -79 -321 -155 -330 -158 -3 -1 -52 -24 -110 -52
-241 -116 -369 -177 -435 -208 -38 -18 -133 -63 -210 -100 -77 -37 -176 -84
-220 -105 -44 -21 -143 -68 -220 -105 -77 -37 -176 -84 -220 -105 -44 -21
-137 -65 -207 -99 l-128 -61 0 -2444 0 -2444 38 -18 c20 -9 87 -41 147 -69 61
-29 162 -77 225 -108 63 -30 165 -78 225 -107 61 -29 152 -72 204 -97 51 -24
143 -68 205 -98 61 -29 165 -78 231 -110 120 -57 240 -115 430 -205 55 -26
154 -73 220 -105 316 -151 325 -155 348 -146 12 5 85 39 162 76 77 37 181 87
230 110 50 23 158 75 240 115 406 196 582 280 740 355 50 23 158 75 240 115
154 74 305 147 501 240 l112 53 1 2443 0 2443 -62 30 c-34 16 -129 61 -212
101 -82 40 -199 96 -260 125 -60 29 -173 83 -250 120 -77 37 -176 84 -220 105
-44 21 -161 77 -260 125 -99 48 -211 102 -250 120 -38 18 -146 70 -240 115
-93 45 -206 99 -250 120 -44 21 -113 54 -154 74 -41 20 -81 36 -90 35 -9 0
-86 -34 -171 -76z m427 -1674 c137 -67 259 -125 273 -131 22 -9 -2 -23 -248
-144 -151 -74 -275 -134 -277 -134 -10 0 -545 262 -545 266 0 2 42 23 93 48
50 24 171 83 267 129 96 47 178 86 182 86 4 1 119 -53 255 -120z"/>
</g>
</svg>
