<?xml version="1.0" encoding="utf-8"?>
<!-- Generator: Adobe Illustrator 17.1.0, SVG Export Plug-In . SVG Version: 6.00 Build 0)  -->
<!DOCTYPE svg PUBLIC "-//W3C//DTD SVG 1.1//EN" "http://www.w3.org/Graphics/SVG/1.1/DTD/svg11.dtd">
<svg version="1.1" xmlns="http://www.w3.org/2000/svg" xmlns:xlink="http://www.w3.org/1999/xlink" x="0px" y="0px"
	 viewBox="0 0 1000 1500" enable-background="new 0 0 1000 1500" xml:space="preserve">
<g id="Layer_1">
	<text transform="matrix(1 0 0 1 257.4282 812.4533)" fill="#333333" font-family="'Lato-Light'" font-size="131.0862">P</text>
	<g>
		<text transform="matrix(1 0 0 1 699.3751 812.4533)" fill="#00EA90" font-family="'Lato-Light'" font-size="131.0862">U</text>
	</g>
	<g>
		<text transform="matrix(1 0 0 1 542.0725 812.4533)" fill="#00EA90" font-family="'Lato-Light'" font-size="131.0862">R</text>
	</g>
	<text transform="matrix(1 0 0 1 392.2598 812.4533)" fill="#333333" font-family="'Lato-Light'" font-size="131.0862">Y</text>
	<g>
		<text transform="matrix(1 0 0 1 837.9531 812.4533)" fill="#00EA90" font-family="'Lato-Light'" font-size="131.0862">S</text>
	</g>
	<g id="XMLID_9_">
		<polygon fill="#494949" points="145.1,723.6 91,749.8 91,710.3 145.1,684.5 		"/>
	</g>
	<g id="XMLID_8_">
		<polygon fill="#0CA579" points="145.1,684.5 198.9,710.3 198.9,749.8 145.1,723.6 		"/>
	</g>
	<g id="XMLID_6_">
		<g id="XMLID_7_">
			<polygon fill="#333333" points="135.4,731.8 91,710.3 91,750 94.2,751.5 135.2,771.2 139,772.8 145.1,775.7 145.1,770 
				145.1,766.3 145.1,736.5 			"/>
			<polygon fill="#3D3D3D" points="91,749.1 91,788.7 91,788.8 94.2,790.3 135.2,809.8 145.1,814.5 145.1,805.1 145.1,775.4 
				135.4,770.7 131.6,769 			"/>
			<polygon fill="#4C4C4C" points="91,787.8 91,827.5 145.1,853.3 145.1,814.2 131.6,807.6 			"/>
			<polygon fill="#00EA90" points="145.1,775.7 150.9,772.8 154.7,771.2 195.9,751.5 198.9,750 198.9,710.3 154.7,731.8 
				145.1,736.5 145.1,766.3 145.1,770 			"/>
			<polygon fill="#00D880" points="145.1,814.5 154.9,809.8 195.9,790.3 198.9,788.8 198.9,788.7 198.9,749.1 158.4,769 
				154.7,770.7 145.1,775.4 145.1,805.1 			"/>
			<polygon fill="#00CC74" points="145.1,853.3 198.9,827.5 198.9,787.8 158.4,807.6 145.1,814.2 			"/>
			<path fill="#0CA579" d="M158.4,815.5"/>
			<path fill="#0CA579" d="M198.9,795.7"/>
		</g>
	</g>
</g>
<g id="Layer_2" display="none">
	<g display="inline">
		<g id="XMLID_20_">
			<polygon fill="#494949" points="145.3,532.5 91.2,558.7 91.2,519.2 145.3,493.3 			"/>
		</g>
		<g id="XMLID_19_">
			<polygon fill="#0CA579" points="145.3,493.3 199.1,519.2 199.1,558.7 145.3,532.5 			"/>
		</g>
		<g id="XMLID_11_">
			<g id="XMLID_1_">
				<polygon fill="#333333" points="135.6,540.7 91.2,519.2 91.2,558.9 94.4,560.4 135.4,580 139.1,581.7 145.3,584.5 145.3,578.9 
					145.3,575.2 145.3,545.4 				"/>
				<polygon fill="#333333" points="91.2,561.9 91.2,601.4 91.2,601.6 94.4,603.1 135.4,622.5 145.3,627.2 145.3,617.9 145.3,588.1 
					135.6,583.4 131.8,581.7 				"/>
				<polygon fill="#494949" points="94.4,560.4 135.4,580 131.8,581.7 91.2,561.9 				"/>
				<polygon fill="#333333" points="91.2,604.6 91.2,644.3 145.3,670.1 145.3,631 131.8,624.4 				"/>
				<polygon fill="#494949" points="135.4,622.5 131.8,624.4 91.2,604.6 94.4,603.1 				"/>
				<polygon fill="#00EA90" points="145.3,584.5 151.1,581.7 154.9,580 196.1,560.4 199.1,558.9 199.1,519.2 154.9,540.7 
					145.3,545.4 145.3,575.2 145.3,578.9 				"/>
				<polygon fill="#00EA90" points="145.3,627.2 155.1,622.5 196.1,603.1 199.1,601.6 199.1,601.4 199.1,561.9 158.6,581.7 
					154.9,583.4 145.3,588.1 145.3,617.9 				"/>
				<polygon fill="#00EA90" points="145.3,670.1 199.1,644.3 199.1,604.6 158.6,624.4 145.3,631 				"/>
				<polygon fill="#0CA579" points="199.1,604.6 158.6,624.4 155.1,622.5 196.1,603.1 				"/>
				<polygon fill="#0CA579" points="199.1,561.9 158.6,581.7 154.9,580 196.1,560.4 				"/>
			</g>
		</g>
	</g>
</g>
</svg>
